<?xml version="1.0" encoding="utf-8"?>
<!-- Generator: Adobe Illustrator 18.0.0, SVG Export Plug-In . SVG Version: 6.00 Build 0)  -->
<!DOCTYPE svg PUBLIC "-//W3C//DTD SVG 1.1//EN" "http://www.w3.org/Graphics/SVG/1.1/DTD/svg11.dtd">
<svg version="1.1" id="Layer_1" xmlns="http://www.w3.org/2000/svg" xmlns:xlink="http://www.w3.org/1999/xlink" x="0px" y="0px"
	 viewBox="0 0 85 85" enable-background="new 0 0 85 85" xml:space="preserve">
<g>
	<path fill="#FFFFFF" d="M42.5,0C66,0,85,19,85,42.5S66,85,42.5,85S0,66,0,42.5S19,0,42.5,0z"/>
</g>
<path fill="#8AC2E6" d="M57.7,39.1C56.3,32.2,50.3,27,43,27c-5.8,0-10.8,3.3-13.3,8.1C23.7,35.7,19,40.8,19,47c0,6.6,5.4,12,12,12
	h26c5.5,0,10-4.5,10-10C67,43.7,62.9,39.4,57.7,39.1z M57,55H31c-4.4,0-8-3.6-8-8s3.6-8,8-8h1.4c1.3-4.6,5.5-8,10.6-8
	c6.1,0,11,4.9,11,11v1h3c3.3,0,6,2.7,6,6S60.3,55,57,55z"/>
</svg>
