<?xml version="1.0" encoding="utf-8"?>
<!-- Generator: Adobe Illustrator 18.0.0, SVG Export Plug-In . SVG Version: 6.00 Build 0)  -->
<!DOCTYPE svg PUBLIC "-//W3C//DTD SVG 1.1//EN" "http://www.w3.org/Graphics/SVG/1.1/DTD/svg11.dtd">
<svg version="1.1" id="圖層_1" xmlns="http://www.w3.org/2000/svg" xmlns:xlink="http://www.w3.org/1999/xlink" x="0px" y="0px"
	 viewBox="0 0 256 256" enable-background="new 0 0 256 256" xml:space="preserve">
<g>
	<g>
		<path fill="#FFFFFF" d="M252.7,125.2c-0.6-41.7-24-82.3-59.8-103.7C164.4,3.9,128.7-0.9,96.4,7.4C47.8,19.5,9.2,63.5,4.3,113.5
			C-1.8,160.7,22,210,62.9,234.4c40.1,25.1,94.5,24.1,133.8-2.3C232,209.1,254,167.4,252.7,125.2z M135,234.2
			c-56.7,5.7-111.4-42.4-113.1-99.3C17.7,88.8,48,43,91.5,27.8c61-24.4,135.7,20.7,142.1,86C243.4,172.7,194.6,232.4,135,234.2z"/>
	</g>
</g>
<path fill="#FFFFFF" d="M97.6,121.7c27.3-22.3,54.1-45.4,82-67.1c-14.6,22.5-29.7,44.7-44.4,67.2
	C122.7,121.9,110.1,121.9,97.6,121.7L97.6,121.7L97.6,121.7z"/>
<path fill="#FFFFFF" d="M120.7,134.1c12.6,0,25.2,0,37.7,0.2c-27.5,22.2-54.1,45.5-82.1,67.1C91,178.9,106.1,156.6,120.7,134.1
	L120.7,134.1L120.7,134.1z"/>
</svg>
